<svg width="20" height="16" viewBox="0 0 20 16" fill="none" xmlns="http://www.w3.org/2000/svg">
<path d="M18.125 2.60417H10.625L8.125 0H1.875C0.839453 0 0 0.87443 0 1.95312V13.6719C0 14.7506 0.839453 15.625 1.875 15.625H18.125C19.1605 15.625 20 14.7506 20 13.6719V4.55729C20 3.4786 19.1605 2.60417 18.125 2.60417ZM14.375 9.4401C14.375 9.7998 14.0953 10.0911 13.75 10.0911H10.9375V13.0208C10.9375 13.3805 10.6578 13.6719 10.3125 13.6719H9.6875C9.34219 13.6719 9.0625 13.3805 9.0625 13.0208V10.0911H6.25C5.90469 10.0911 5.625 9.7998 5.625 9.4401V8.78906C5.625 8.42936 5.90469 8.13802 6.25 8.13802H9.0625V5.20833C9.0625 4.84863 9.34219 4.55729 9.6875 4.55729H10.3125C10.6578 4.55729 10.9375 4.84863 10.9375 5.20833V8.13802H13.75C14.0953 8.13802 14.375 8.42936 14.375 8.78906V9.4401Z" fill="white"/>
</svg>
