<svg width="26" height="26" viewBox="0 0 26 26" fill="none" xmlns="http://www.w3.org/2000/svg">
<path d="M0 8.58929V1.39286C0 0.620982 0.620982 0 1.39286 0H8.58929C8.97232 0 9.28571 0.313393 9.28571 0.696429V3.01786C9.28571 3.40089 8.97232 3.71429 8.58929 3.71429H3.71429V8.58929C3.71429 8.97232 3.40089 9.28571 3.01786 9.28571H0.696429C0.313393 9.28571 0 8.97232 0 8.58929ZM16.7143 0.696429V3.01786C16.7143 3.40089 17.0277 3.71429 17.4107 3.71429H22.2857V8.58929C22.2857 8.97232 22.5991 9.28571 22.9821 9.28571H25.3036C25.6866 9.28571 26 8.97232 26 8.58929V1.39286C26 0.620982 25.379 0 24.6071 0H17.4107C17.0277 0 16.7143 0.313393 16.7143 0.696429ZM25.3036 16.7143H22.9821C22.5991 16.7143 22.2857 17.0277 22.2857 17.4107V22.2857H17.4107C17.0277 22.2857 16.7143 22.5991 16.7143 22.9821V25.3036C16.7143 25.6866 17.0277 26 17.4107 26H24.6071C25.379 26 26 25.379 26 24.6071V17.4107C26 17.0277 25.6866 16.7143 25.3036 16.7143ZM9.28571 25.3036V22.9821C9.28571 22.5991 8.97232 22.2857 8.58929 22.2857H3.71429V17.4107C3.71429 17.0277 3.40089 16.7143 3.01786 16.7143H0.696429C0.313393 16.7143 0 17.0277 0 17.4107V24.6071C0 25.379 0.620982 26 1.39286 26H8.58929C8.97232 26 9.28571 25.6866 9.28571 25.3036Z" fill="white"/>
</svg>
