<svg width="31" height="31" viewBox="0 0 31 31" fill="none" xmlns="http://www.w3.org/2000/svg">
<path d="M15.2016 0C6.80395 0 0 6.80395 0 15.2016C0 23.5993 6.80395 30.4032 15.2016 30.4032C23.5993 30.4032 30.4032 23.5993 30.4032 15.2016C30.4032 6.80395 23.5993 0 15.2016 0ZM15.2016 5.8845C18.1806 5.8845 20.5957 8.29959 20.5957 11.2786C20.5957 14.2576 18.1806 16.6727 15.2016 16.6727C12.2226 16.6727 9.80749 14.2576 9.80749 11.2786C9.80749 8.29959 12.2226 5.8845 15.2016 5.8845ZM15.2016 26.9706C11.6035 26.9706 8.37928 25.3401 6.22163 22.7902C7.37401 20.6203 9.62973 19.1246 12.2594 19.1246C12.4065 19.1246 12.5536 19.1491 12.6946 19.192C13.4914 19.4495 14.3251 19.615 15.2016 19.615C16.0782 19.615 16.9179 19.4495 17.7087 19.192C17.8496 19.1491 17.9967 19.1246 18.1439 19.1246C20.7735 19.1246 23.0292 20.6203 24.1816 22.7902C22.0239 25.3401 18.7997 26.9706 15.2016 26.9706Z" fill="white"/>
</svg>
