<svg width="26" height="26" viewBox="0 0 26 26" fill="none" xmlns="http://www.w3.org/2000/svg">
<path d="M25.1841 5.68408L20.3159 0.815924C19.7935 0.2935 19.0849 3.8633e-06 18.3461 0H2.78571C1.24719 0 0 1.24719 0 2.78571V23.2143C0 24.7528 1.24719 26 2.78571 26H23.2143C24.7528 26 26 24.7528 26 23.2143V7.65387C26 6.91505 25.7065 6.2065 25.1841 5.68408ZM13 22.2857C10.9487 22.2857 9.28571 20.6228 9.28571 18.5714C9.28571 16.5201 10.9487 14.8571 13 14.8571C15.0513 14.8571 16.7143 16.5201 16.7143 18.5714C16.7143 20.6228 15.0513 22.2857 13 22.2857ZM18.5714 4.61268V10.4464C18.5714 10.831 18.2596 11.1429 17.875 11.1429H4.41071C4.02611 11.1429 3.71429 10.831 3.71429 10.4464V4.41071C3.71429 4.02611 4.02611 3.71429 4.41071 3.71429H17.673C17.8578 3.71429 18.0349 3.78764 18.1655 3.91828L18.3674 4.12025C18.4321 4.1849 18.4834 4.26167 18.5184 4.34617C18.5534 4.43066 18.5714 4.52122 18.5714 4.61268Z" fill="white"/>
</svg>
