<svg width="23" height="26" viewBox="0 0 23 26" fill="none" xmlns="http://www.w3.org/2000/svg">
<path d="M17.9771 16.25C16.8225 16.25 15.7613 16.6471 14.9236 17.3111L9.68948 14.0583C9.84448 13.3612 9.84448 12.6388 9.68948 11.9416L14.9236 8.68888C15.7613 9.35294 16.8225 9.75 17.9771 9.75C20.6849 9.75 22.88 7.56737 22.88 4.875C22.88 2.18263 20.6849 0 17.9771 0C15.2694 0 13.0743 2.18263 13.0743 4.875C13.0743 5.23849 13.1146 5.59254 13.1905 5.93333L7.95642 9.18607C7.11869 8.52206 6.05748 8.125 4.90286 8.125C2.1951 8.125 0 10.3076 0 13C0 15.6924 2.1951 17.875 4.90286 17.875C6.05748 17.875 7.11869 17.4779 7.95642 16.8139L13.1905 20.0667C13.1132 20.4142 13.0742 20.7691 13.0743 21.125C13.0743 23.8174 15.2694 26 17.9771 26C20.6849 26 22.88 23.8174 22.88 21.125C22.88 18.4326 20.6849 16.25 17.9771 16.25Z" fill="white"/>
</svg>
